<svg width="64" height="64" xmlns="http://www.w3.org/2000/svg" xmlns:xlink="http://www.w3.org/1999/xlink" xml:space="preserve" overflow="hidden"><g transform="translate(-499 -80)"><path d="M557.533 131.493C558.065 130.661 560.465 126.485 560.228 119.233 560.177 117.66 559.783 108.848 559.481 104.853 559.544 103.443 558.731 102.139 557.437 101.575 557.038 101.422 556.596 101.427 556.2 101.588L556.2 99.3333C556.198 97.5669 554.766 96.1356 553 96.1333 552.723 96.1347 552.449 96.1984 552.2 96.32L552.2 96C552.2 94.6009 551.066 93.4667 549.667 93.4667 548.268 93.4667 547.133 94.6009 547.133 96L547.133 96.32C546.884 96.1985 546.611 96.1347 546.333 96.1333 544.567 96.1356 543.136 97.5669 543.133 99.3333L543.133 110.305C543.112 112.696 542.718 115.069 541.965 117.339L539.768 114.572C539.402 112.411 538.083 110.528 536.177 109.445 535.409 109.008 534.432 109.277 533.995 110.045 533.799 110.39 533.738 110.795 533.824 111.183L536.511 123.599 543.133 130.221 543.133 134.8 541.8 134.8 541.8 142.667 542.867 142.667 542.867 135.867 557.8 135.867 557.8 142.667 558.867 142.667 558.867 134.8 557.56 134.8ZM544.2 131.173C544.533 131.431 544.884 131.665 545.249 131.875L545.777 130.947C545.143 130.585 544.56 130.139 544.044 129.623L537.489 123.068 534.865 110.952C534.801 110.665 534.982 110.379 535.269 110.315 535.399 110.286 535.534 110.307 535.649 110.372 537.319 111.327 538.459 112.995 538.743 114.897L542.911 120.243 543.745 119.579 542.759 118.336C543.694 115.761 544.181 113.044 544.2 110.304L544.2 99.3333C544.201 98.1557 545.156 97.2015 546.333 97.2 546.774 97.2 547.132 97.5565 547.133 97.9973L547.133 112.421 546.387 113.061 547.08 113.872 548.2 112.912 548.2 96C548.2 95.19 548.857 94.5333 549.667 94.5333 550.477 94.5333 551.133 95.19 551.133 96L551.133 112.912 552.253 113.872 552.947 113.061 552.2 112.421 552.2 98C552.2 97.5581 552.558 97.2 553 97.2 554.178 97.2015 555.132 98.1557 555.133 99.3333L555.133 114.245 556.253 115.205 556.947 114.395 556.2 113.755 556.2 103.159C556.2 102.951 556.302 102.757 556.473 102.64 556.646 102.522 556.866 102.497 557.061 102.573 557.889 102.891 558.32 103.64 558.417 104.933 558.717 108.915 559.111 117.7 559.163 119.269 559.409 126.859 556.592 130.987 556.563 131.027L556.465 131.167 556.493 134.8 544.2 134.8ZM514.867 109.467 513.533 109.467 513.533 106.221 517.481 102.273 518.867 96.6667 518.867 92.004C518.867 91.3413 518.33 90.8037 517.667 90.8033 517.383 90.8032 517.108 90.9041 516.891 91.088 516.044 91.808 515.063 93.3187 515.127 96.452L514.247 97.332C513.787 95.8885 513.547 94.3841 513.533 92.8693L513.533 85.112C513.533 83.8359 512.499 82.8015 511.223 82.8 511.08 82.8063 510.939 82.8346 510.805 82.884 510.561 81.8869 509.555 81.2766 508.558 81.5207 507.885 81.6855 507.359 82.211 507.195 82.884 507.061 82.8346 506.92 82.8063 506.777 82.8 505.502 82.8015 504.468 83.8351 504.467 85.1107L504.467 86.8533C504.209 86.7854 503.938 86.7924 503.684 86.8733 502.559 87.2473 501.8 88.2997 501.8 89.4853L501.8 99.3333C501.705 102.1 502.158 104.859 503.133 107.449L503.133 109.467 501.8 109.467 501.8 117.333 502.867 117.333 502.867 110.533 513.8 110.533 513.8 116.445C514.152 116.376 514.504 116.305 514.867 116.252ZM504.147 107.101C503.199 104.625 502.764 101.983 502.867 99.3333L502.867 89.4867C502.866 88.7599 503.331 88.1142 504.02 87.884 504.124 87.8504 504.237 87.8677 504.327 87.9307 504.415 87.9946 504.467 88.0967 504.467 88.2053L504.467 95.088 504.031 95.4613 504.724 96.272 505.533 95.5787 505.533 85.112C505.534 84.4245 506.091 83.8674 506.779 83.8667 506.974 83.8674 507.133 84.0258 507.133 84.2213L507.133 94.1987 506.697 94.572 507.391 95.3827 508.2 94.6893 508.2 83.3333C508.2 82.8915 508.558 82.5333 509 82.5333 509.442 82.5333 509.8 82.8915 509.8 83.3333L509.8 94.6907 510.609 95.384 511.303 94.5733 510.867 94.2 510.867 84.22C510.867 84.0239 511.027 83.8653 511.223 83.8653 511.91 83.8661 512.467 84.4234 512.467 85.1107L512.467 92.868C512.481 94.6768 512.798 96.4704 513.404 98.1747L512.623 98.9547 513.377 99.7093 516.208 96.8787 516.2 96.6453C516.096 93.7813 516.893 92.4853 517.581 91.9013 517.638 91.8542 517.722 91.8619 517.769 91.9184 517.789 91.9421 517.8 91.9719 517.8 92.0027L517.816 96.536 516.519 101.725 512.623 105.621C512.159 106.087 511.608 106.455 511 106.704L511.404 107.691C511.776 107.538 512.133 107.348 512.467 107.124L512.467 109.467 504.2 109.467 504.2 107.333ZM525.8 94.1667 525.8 100.409 531.915 95.756C536.325 96.1813 540.648 95.0173 543.227 92.7 544.645 91.5338 545.487 89.809 545.533 87.9733 545.533 83.5627 540.32 80.1067 533.667 80.1067 527.013 80.1067 521.8 83.5627 521.8 87.9733 521.952 90.5969 523.471 92.9479 525.8 94.1653ZM533.667 81.1733C539.723 81.1733 544.467 84.16 544.467 87.9733 544.416 89.5047 543.704 90.939 542.515 91.9053 540.111 94.0627 536.011 95.124 531.816 94.6733L531.605 94.6507 526.867 98.256 526.867 93.548 526.596 93.3947C524.48 92.3762 523.061 90.3137 522.867 87.9733 522.867 84.16 527.611 81.1733 533.667 81.1733ZM539 87.8667 528.333 87.8667 528.333 86.8 539 86.8ZM535 90.5333 528.333 90.5333 528.333 89.4667 535 89.4667ZM518.333 117.467C509.952 117.467 503.133 122.192 503.133 128 503.2 130.481 504.334 132.813 506.244 134.397 509.599 137.441 514.893 138.943 520.427 138.437L528.2 141.444 528.2 136.023C531.595 134.02 533.533 131.111 533.533 128 533.533 122.192 526.715 117.467 518.333 117.467ZM527.405 135.249 527.133 135.403 527.133 139.888 520.576 137.351 520.449 137.364C515.237 137.868 510.075 136.432 506.96 133.608 505.276 132.223 504.27 130.179 504.2 128 504.2 122.78 510.54 118.533 518.333 118.533 526.127 118.533 532.467 122.78 532.467 128 532.467 130.796 530.621 133.439 527.405 135.249ZM511 125.467 524.333 125.467 524.333 126.533 511 126.533ZM511 129.467 519 129.467 519 130.533 511 130.533Z" fill="#12416F"/></g></svg>
