<svg width="64" height="64" xmlns="http://www.w3.org/2000/svg" xmlns:xlink="http://www.w3.org/1999/xlink" xml:space="preserve" overflow="hidden"><g transform="translate(-179 -560)"><path d="M221.544 615.295 222 616.26C218.764 617.765 215.236 618.541 211.667 618.533 207.562 618.551 203.521 617.52 199.928 615.536L200.448 614.605C203.882 616.5 207.744 617.485 211.667 617.467 215.078 617.475 218.45 616.733 221.544 615.295ZM230.153 591.015 231.071 590.471C228.869 586.847 225.606 583.988 221.725 582.28L221.283 583.252C224.965 584.869 228.062 587.579 230.153 591.015ZM202.053 583.249 201.611 582.279C197.636 584.044 194.311 587.005 192.1 590.749L193.028 591.277C195.128 587.727 198.283 584.921 202.053 583.249ZM231.668 593.467C234.172 593.467 236.201 595.496 236.201 598 236.201 600.504 234.172 602.533 231.668 602.533 229.164 602.533 227.135 600.504 227.135 598 227.138 595.497 229.165 593.47 231.668 593.467ZM228.201 598C228.201 599.915 229.753 601.467 231.668 601.467 233.583 601.467 235.135 599.915 235.135 598 235.135 596.085 233.583 594.533 231.668 594.533 229.754 594.536 228.204 596.086 228.201 598ZM238.867 617.544C238.923 618.472 238.392 619.336 237.539 619.704L237.539 620.568C237.538 621.664 236.649 622.553 235.553 622.553L227.787 622.553C226.69 622.553 225.801 621.665 225.8 620.568L225.8 619.705C224.946 619.336 224.415 618.47 224.473 617.541L225.044 607.987C225.182 605.834 226.967 604.157 229.124 604.153L234.215 604.153C236.372 604.157 238.156 605.833 238.295 607.985ZM237.803 617.609 237.229 608.051C237.126 606.461 235.809 605.224 234.216 605.22L229.123 605.22C227.529 605.224 226.212 606.462 226.109 608.052L225.537 617.608C225.5 618.174 225.887 618.681 226.443 618.795L226.869 618.881 226.869 620.568C226.869 621.075 227.28 621.487 227.787 621.488L235.553 621.488C236.061 621.487 236.472 621.076 236.472 620.568L236.472 618.881 236.897 618.793C237.127 618.747 237.337 618.631 237.497 618.46 237.712 618.23 237.822 617.923 237.803 617.609ZM185.8 598C185.8 595.496 187.83 593.467 190.333 593.467 192.837 593.467 194.867 595.496 194.867 598 194.867 600.504 192.837 602.533 190.333 602.533 187.831 602.53 185.803 600.503 185.8 598ZM186.867 598C186.867 599.915 188.419 601.467 190.333 601.467 192.248 601.467 193.8 599.915 193.8 598 193.8 596.085 192.248 594.533 190.333 594.533 188.42 594.536 186.869 596.086 186.867 598ZM196.96 607.987 197.531 617.544C197.587 618.472 197.056 619.336 196.203 619.704L196.203 620.568C196.202 621.664 195.313 622.553 194.217 622.553L186.453 622.553C185.357 622.553 184.467 621.665 184.467 620.568L184.467 619.705C183.612 619.336 183.082 618.47 183.14 617.541L183.711 607.987C183.848 605.834 185.633 604.157 187.791 604.153L192.881 604.153C195.038 604.157 196.823 605.833 196.961 607.985ZM196.467 617.609 195.893 608.051C195.79 606.461 194.473 605.224 192.88 605.22L187.787 605.22C186.193 605.224 184.876 606.462 184.773 608.052L184.201 617.608C184.164 618.174 184.551 618.681 185.107 618.795L185.533 618.881 185.533 620.568C185.533 621.075 185.944 621.487 186.451 621.488L194.217 621.488C194.725 621.487 195.136 621.076 195.136 620.568L195.136 618.881 195.561 618.793C195.791 618.747 196.001 618.631 196.161 618.46 196.376 618.23 196.486 617.923 196.467 617.609ZM205.063 587.188C204.646 586.744 204.432 586.148 204.471 585.541L205.041 575.987C205.179 573.834 206.964 572.157 209.121 572.153L214.212 572.153C216.369 572.157 218.154 573.833 218.292 575.985L218.865 585.545C218.922 586.473 218.39 587.337 217.536 587.705L217.536 588.568C217.535 589.664 216.647 590.553 215.551 590.553L207.787 590.553C206.69 590.553 205.801 589.665 205.8 588.568L205.8 587.705C205.522 587.585 205.272 587.409 205.065 587.188ZM205.535 585.608C205.498 586.174 205.884 586.681 206.44 586.795L206.867 586.881 206.867 588.568C206.867 589.075 207.277 589.487 207.784 589.488L215.551 589.488C216.058 589.487 216.469 589.076 216.469 588.568L216.469 586.881 216.895 586.793C217.124 586.747 217.334 586.631 217.495 586.46 217.709 586.23 217.819 585.923 217.8 585.609L217.227 576.051C217.123 574.461 215.806 573.224 214.213 573.22L209.12 573.22C207.527 573.224 206.209 574.462 206.107 576.052ZM207.135 566C207.135 563.496 209.164 561.467 211.668 561.467 214.172 561.467 216.201 563.496 216.201 566 216.201 568.504 214.172 570.533 211.668 570.533 209.165 570.53 207.138 568.502 207.135 566ZM208.201 566C208.201 567.915 209.753 569.467 211.668 569.467 213.583 569.467 215.135 567.915 215.135 566 215.135 564.085 213.583 562.533 211.668 562.533 209.754 562.536 208.204 564.086 208.201 566Z" fill="#12416F"/></g></svg>