<svg width="64" height="64" xmlns="http://www.w3.org/2000/svg" xmlns:xlink="http://www.w3.org/1999/xlink" xml:space="preserve" overflow="hidden"><g transform="translate(-712 -560)"><path d="M726.217 594.653 714.672 590.229 715.055 589.233 725.783 593.345 737.689 574.484 749.897 581.46 767.5 562.533 758.667 562.533 758.667 561.467 769.2 561.467 769.2 572 768.133 572 768.133 563.42 750.103 582.807 738.045 575.916ZM753.2 600.667 753.2 618C753.2 619.732 747.179 619.867 745.333 619.867 743.488 619.867 737.467 619.732 737.467 618L737.467 600.667C737.467 600.378 737.534 600.094 737.663 599.836 736.777 599.672 736.134 598.9 736.133 598L736.133 594C736.133 592.268 742.155 592.133 744 592.133 745.845 592.133 751.867 592.268 751.867 594L751.867 598C751.867 598.288 751.8 598.573 751.671 598.831 752.556 598.994 753.199 599.766 753.2 600.667ZM737.377 594C739.523 594.643 741.763 594.913 744 594.8 746.237 594.913 748.477 594.643 750.623 594 748.477 593.357 746.237 593.087 744 593.2 741.763 593.087 739.523 593.357 737.377 594ZM752.133 600.667C752.133 600.225 751.775 599.867 751.333 599.867L750 599.867 750 598.8C750.442 598.8 750.8 598.442 750.8 598L750.8 595.057C748.586 595.662 746.294 595.934 744 595.867 741.706 595.934 739.414 595.662 737.2 595.057L737.2 598C737.2 598.442 737.558 598.8 738 598.8L746.667 598.8 746.667 599.867 739.333 599.867C738.891 599.867 738.533 600.225 738.533 600.667L738.533 602.8 746.667 602.8 746.667 603.867 738.533 603.867 738.533 606.8 746.667 606.8 746.667 607.867 738.533 607.867 738.533 610.8 746.667 610.8 746.667 611.867 738.533 611.867 738.533 614.8 746.667 614.8 746.667 615.867 738.533 615.867 738.533 617.897C738.948 618.224 741.283 618.8 745.333 618.8 749.384 618.8 751.719 618.224 752.133 617.897ZM774.337 587.836C774.466 588.094 774.533 588.378 774.533 588.667L774.533 594C774.533 594.288 774.466 594.573 774.337 594.831 775.223 594.994 775.866 595.766 775.867 596.667L775.867 606C775.866 606.9 775.223 607.672 774.337 607.836 774.466 608.094 774.533 608.378 774.533 608.667L774.533 618C774.533 619.031 773.697 619.866 772.667 619.867L771.2 619.867 771.2 620.667C771.2 622.399 765.179 622.533 763.333 622.533 761.488 622.533 755.467 622.399 755.467 620.667L755.467 619.333C755.467 618.303 756.303 617.467 757.333 617.467L758.8 617.467 758.8 608.667C758.801 607.766 759.444 606.994 760.329 606.831 760.2 606.573 760.133 606.288 760.133 606L760.133 596.667C760.133 596.378 760.2 596.094 760.329 595.836 759.444 595.672 758.801 594.9 758.8 594L758.8 588.667C758.801 587.766 759.444 586.994 760.329 586.831 760.2 586.573 760.133 586.288 760.133 586L760.133 582.043C760.133 580.311 766.155 580.176 768 580.176 769.845 580.176 775.867 580.311 775.867 582.043L775.867 586C775.866 586.9 775.223 587.672 774.337 587.836ZM761.377 582.043C763.523 582.685 765.763 582.956 768 582.843 770.237 582.956 772.477 582.685 774.623 582.043 772.477 581.4 770.237 581.129 768 581.243 765.763 581.129 763.523 581.4 761.377 582.043ZM770.133 619.333C770.133 618.891 769.775 618.533 769.333 618.533L757.333 618.533C756.891 618.533 756.533 618.891 756.533 619.333L756.533 620.564C756.948 620.891 759.283 621.467 763.333 621.467 767.384 621.467 769.719 620.891 770.133 620.564ZM774.8 586 774.8 583.101C772.586 583.705 770.294 583.977 768 583.909 765.706 583.977 763.414 583.705 761.2 583.101L761.2 586C761.2 586.442 761.558 586.8 762 586.8L768 586.8 768 587.867 760.667 587.867C760.225 587.867 759.867 588.225 759.867 588.667L759.867 590.8 766.667 590.8 766.667 591.867 759.867 591.867 759.867 594C759.867 594.442 760.225 594.8 760.667 594.8L768 594.8 768 595.867 762 595.867C761.558 595.867 761.2 596.225 761.2 596.667L761.2 598.8 768 598.8 768 599.867 761.2 599.867 761.2 602.8 768 602.8 768 603.867 761.2 603.867 761.2 606C761.2 606.442 761.558 606.8 762 606.8L768 606.8 768 607.867 760.667 607.867C760.225 607.867 759.867 608.225 759.867 608.667L759.867 610.8 766.667 610.8 766.667 611.867 759.867 611.867 759.867 614.8 766.667 614.8 766.667 615.867 759.867 615.867 759.867 617.467 769.333 617.467C770.156 617.469 770.88 618.011 771.113 618.8L772.667 618.8C773.109 618.8 773.467 618.442 773.467 618L773.467 608.667C773.467 608.225 773.109 607.867 772.667 607.867L772.667 606.8 774 606.8C774.442 606.8 774.8 606.442 774.8 606L774.8 596.667C774.8 596.225 774.442 595.867 774 595.867L772.667 595.867 772.667 594.8C773.109 594.8 773.467 594.442 773.467 594L773.467 588.667C773.467 588.225 773.109 587.867 772.667 587.867L772.667 586.8 774 586.8C774.442 586.8 774.8 586.442 774.8 586ZM733.867 619.333 733.867 620.667C733.867 622.399 727.845 622.533 726 622.533 724.155 622.533 718.133 622.399 718.133 620.667L718.133 619.733C713.481 619.333 713.467 618.336 713.467 618L713.467 616.667C713.468 615.766 714.111 614.994 714.996 614.831 714.867 614.573 714.8 614.288 714.8 614L714.8 602C714.8 600.268 720.821 600.133 722.667 600.133 724.512 600.133 730.533 600.268 730.533 602L730.533 614C730.532 614.9 729.889 615.672 729.004 615.836 729.133 616.094 729.2 616.378 729.2 616.667L729.2 617.467 732 617.467C733.031 617.467 733.866 618.303 733.867 619.333ZM716.044 602C718.19 602.643 720.43 602.913 722.667 602.8 724.904 602.913 727.144 602.643 729.289 602 727.144 601.357 724.904 601.087 722.667 601.2 720.43 601.087 718.19 601.357 716.044 602ZM714.533 617.896C715.71 618.404 716.978 618.668 718.26 618.672 718.534 617.948 719.226 617.469 720 617.467L728.133 617.467 728.133 616.667C728.133 616.225 727.775 615.867 727.333 615.867L727.333 614.8 728.667 614.8C729.109 614.8 729.467 614.442 729.467 614L729.467 603.057C727.252 603.662 724.961 603.934 722.667 603.867 720.372 603.934 718.081 603.662 715.867 603.057L715.867 606.8 724 606.8 724 607.867 715.867 607.867 715.867 610.8 724 610.8 724 611.867 715.867 611.867 715.867 614C715.867 614.442 716.225 614.8 716.667 614.8L724 614.8 724 615.867 715.333 615.867C714.891 615.867 714.533 616.225 714.533 616.667ZM732.8 619.333C732.8 618.891 732.442 618.533 732 618.533L720 618.533C719.558 618.533 719.2 618.891 719.2 619.333L719.2 620.564C719.615 620.891 721.949 621.467 726 621.467 730.051 621.467 732.385 620.891 732.8 620.564Z" fill="#FFFFFF"/></g></svg>