<svg width="64" height="64" xmlns="http://www.w3.org/2000/svg" xmlns:xlink="http://www.w3.org/1999/xlink" xml:space="preserve" overflow="hidden"><g transform="translate(-1139 -560)"><path d="M1156.2 582.667 1155.13 582.667 1155.13 580.133 1161.67 580.133 1161.67 581.2 1156.2 581.2ZM1165.53 591.867 1171 591.867 1171 590.8 1164.47 590.8 1164.47 593.333 1165.53 593.333ZM1165.53 586.533 1171 586.533 1171 585.467 1164.47 585.467 1164.47 588 1165.53 588ZM1165.53 581.2 1171 581.2 1171 580.133 1164.47 580.133 1164.47 582.667 1165.53 582.667ZM1146.87 581.2 1152.33 581.2 1152.33 580.133 1145.8 580.133 1145.8 582.667 1146.87 582.667ZM1146.87 591.867 1152.33 591.867 1152.33 590.8 1145.8 590.8 1145.8 593.333 1146.87 593.333ZM1156.2 586.533 1161.67 586.533 1161.67 585.467 1155.13 585.467 1155.13 588 1156.2 588ZM1141.8 601.2 1141.8 577.2 1140.47 577.2 1140.47 573.467 1147.13 573.467 1147.13 562.8 1160.2 562.8 1160.2 573.467 1176.2 573.467 1176.2 577.2 1174.87 577.2 1174.87 600.507C1174.56 600.072 1174.2 599.672 1173.8 599.316L1173.8 597.2 1158.87 597.2 1158.87 600.133 1163.41 600.133C1163.14 600.467 1162.9 600.824 1162.69 601.2ZM1152.47 597.2 1142.87 597.2 1142.87 600.133 1152.47 600.133ZM1157.8 597.2 1153.53 597.2 1153.53 600.133 1157.8 600.133ZM1173.8 577.2 1142.87 577.2 1142.87 596.133 1173.8 596.133ZM1148.2 573.467 1159.13 573.467 1159.13 563.867 1148.2 563.867ZM1141.8 576.133 1175.13 576.133 1175.13 574.533 1141.53 574.533 1141.53 576.133ZM1155.13 568.133 1152.2 568.133 1152.2 565.333 1151.13 565.333 1151.13 572 1152.2 572 1152.2 569.2 1155.13 569.2 1155.13 572 1156.2 572 1156.2 565.333 1155.13 565.333ZM1146.87 586.533 1152.33 586.533 1152.33 585.467 1145.8 585.467 1145.8 588 1146.87 588ZM1156.2 591.867 1161.67 591.867 1161.67 590.8 1155.13 590.8 1155.13 593.333 1156.2 593.333Z" fill="#FFFFFF"/><path d="M1200.2 586.024 1200.2 598C1200.21 603.265 1196.12 607.627 1190.87 607.955L1190.87 611.695C1190.88 617.654 1186.07 622.503 1180.11 622.533 1173.91 622.533 1168.47 617.468 1168.47 611.693L1168.47 609.013C1166.05 608.719 1164.34 606.525 1164.63 604.112 1164.93 601.7 1167.12 599.984 1169.53 600.278 1171.95 600.573 1173.66 602.767 1173.37 605.179 1173.12 607.186 1171.54 608.768 1169.53 609.013L1169.53 611.693C1169.53 616.808 1174.58 621.467 1180.11 621.467 1185.48 621.437 1189.82 617.065 1189.8 611.693L1189.8 607.955C1184.55 607.627 1180.46 603.265 1180.47 598L1180.47 586.024C1180.47 584.98 1181.31 584.134 1182.36 584.133L1183.64 584.133C1184.69 584.135 1185.53 584.981 1185.53 586.024L1185.53 587.309C1185.53 588.353 1184.69 589.199 1183.64 589.2L1181.53 589.2 1181.53 598C1181.53 602.86 1185.47 606.8 1190.33 606.8 1195.19 606.8 1199.13 602.86 1199.13 598L1199.13 589.2 1197.02 589.2C1195.98 589.199 1195.13 588.353 1195.13 587.309L1195.13 586.024C1195.13 584.98 1195.98 584.134 1197.02 584.133L1198.31 584.133C1199.35 584.134 1200.2 584.98 1200.2 586.024ZM1181.53 588.133 1183.64 588.133C1184.1 588.133 1184.47 587.764 1184.47 587.309L1184.47 586.024C1184.47 585.569 1184.1 585.2 1183.64 585.2L1182.36 585.2C1181.9 585.201 1181.53 585.569 1181.53 586.024ZM1169 608C1170.84 608 1172.33 606.508 1172.33 604.667 1172.33 602.826 1170.84 601.333 1169 601.333 1167.16 601.333 1165.67 602.826 1165.67 604.667 1165.67 606.507 1167.16 607.998 1169 608ZM1197.02 588.133 1199.13 588.133 1199.13 586.024C1199.13 585.569 1198.76 585.201 1198.31 585.2L1197.02 585.2C1196.57 585.201 1196.2 585.569 1196.2 586.024L1196.2 587.309C1196.2 587.764 1196.57 588.133 1197.02 588.133Z" fill="#FFFFFF"/></g></svg>