<svg width="64" height="64" xmlns="http://www.w3.org/2000/svg" xmlns:xlink="http://www.w3.org/1999/xlink" xml:space="preserve" overflow="hidden"><g transform="translate(-712 -560)"><path d="M744 591.867C752.027 591.867 758.533 585.36 758.533 577.333 758.533 569.307 752.027 562.8 744 562.8 735.973 562.8 729.467 569.307 729.467 577.333 729.475 585.356 735.977 591.858 744 591.867ZM757.467 577.333C757.459 583.23 753.623 588.438 747.995 590.195L747.995 590.192 748.223 589.809C748.514 589.38 748.72 588.899 748.829 588.392L749.083 587.529 748.673 586.76 748.527 586.363 748.632 586.065 748.605 585.181 747.952 584.655 747.553 584.507C746.76 584.23 745.908 584.166 745.083 584.32 744.817 584.352 744.483 584.395 744.031 584.443L743.021 583.997 741.152 581.609 741.152 581.291C741.471 581.148 741.704 580.911 741.989 580.184L742.059 579.637 742.22 579.2 743.136 577.916C743.237 577.903 743.339 577.905 743.439 577.921L743.796 577.996 743.996 577.692C744.371 577.147 744.799 576.641 745.273 576.18L745.512 575.933 745.664 575.871C745.777 575.924 745.84 575.956 745.873 575.972 746.006 576.054 746.144 576.128 746.285 576.195L746.492 576.252 747.657 575.904 748.025 575.881C748.345 575.845 748.667 575.85 748.985 575.897L749.259 576.236 749.263 576.357 749.484 576.916 751.693 577.928 752.495 577.16C752.561 577.181 752.632 577.207 752.697 577.231 752.857 577.292 753.02 577.344 753.185 577.387L753.307 577.413 753.629 577.337C753.82 577.297 754.008 577.24 754.189 577.168L754.592 577.024 755.081 576.301 754.788 575.208 754.133 574.823 753.805 574.747C753.738 574.743 753.67 574.741 753.603 574.74L753.243 574.507 752.793 573.897 752.052 574.435 751.997 574.409C751.755 573.725 751.271 573.153 750.636 572.8L750.243 572.528 749.704 573.148 749.3 572.909 748.644 572.695 747.953 572.933 746.908 573.873 746.821 573.981C746.731 574.12 746.655 574.267 746.595 574.421L746.471 574.573 746.156 574.704C746.047 574.681 745.939 574.653 745.832 574.621L745.592 574.291C745.592 574.036 745.612 573.782 745.653 573.531L745.891 573.388C745.952 573.399 746 573.412 746.041 573.421 746.297 573.492 746.565 573.503 746.825 573.455L747.084 573.421 747.409 572.715 747.356 572.503C747.331 572.399 747.303 572.295 747.271 572.193L747.449 571.752C747.845 571.513 748.206 571.22 748.521 570.881 748.626 570.761 748.742 570.652 748.869 570.556L748.995 570.516C749.199 570.569 749.528 570.653 749.732 570.701L749.82 570.723 751.407 570.557 751.407 568.399 751.26 568.244C751.058 567.968 750.721 567.825 750.381 567.871L750.227 567.759 749.863 567.651 749.443 567.8 749.18 568.464 749.185 568.588C749.191 568.721 749.193 568.829 749.201 568.941L749.105 569.117 748.485 568.611 748.4 568.245C748.531 568.051 748.641 567.842 748.728 567.624 748.781 567.495 748.842 567.37 748.913 567.251L749.66 566.811C749.884 566.861 750.252 566.949 750.564 567.024L751.449 567.232 751.652 566.915C751.695 566.848 751.815 566.661 751.936 566.477 755.408 569.005 757.463 573.039 757.467 577.333ZM749.549 574.887 749.105 574.837C748.725 574.783 748.34 574.776 747.959 574.817L747.591 574.839C747.598 574.816 747.602 574.793 747.604 574.769 747.632 574.708 747.664 574.648 747.7 574.591L748.412 573.901 748.681 573.808 749.012 574.019 749.675 574.255 750.265 574.129 750.412 573.96C750.742 574.225 750.977 574.59 751.083 575L751.163 575.203 752.176 575.663 752.595 575.359 753.156 575.721 753.364 575.808 753.524 575.807 753.707 575.809 753.872 575.907 753.925 576.107 753.828 576.164C753.684 576.222 753.535 576.267 753.384 576.3L753.312 576.316C753.232 576.292 753.147 576.26 753.061 576.228 752.858 576.146 752.646 576.084 752.431 576.044L752.205 576.012 751.423 576.631 750.343 576.136 750.373 575.923ZM750.276 569.016C750.272 568.972 750.269 568.927 750.267 568.883 750.291 568.886 750.315 568.887 750.339 568.887L750.339 569.593 750.045 569.625 750.289 569.175ZM744.277 563.88C744.148 564.046 744.037 564.225 743.944 564.415L741.911 564.415 740.66 565.319 740.637 565.325 740.609 565.275 741.023 564.543 741.564 564.099C742.367 563.948 743.183 563.87 744 563.867 744.093 563.867 744.184 563.88 744.277 563.88ZM739.82 564.539 739.391 565.264 739.931 566.264 740.593 566.44 741.027 566.325 742.256 565.481 744.627 565.481 744.767 565.167C744.916 564.732 745.204 564.357 745.585 564.1L745.664 563.98C747.576 564.218 749.413 564.866 751.051 565.881L750.957 566.023 750.812 565.988C750.429 565.893 750.044 565.804 749.659 565.72L749.465 565.685 748.248 566.405 748.061 566.592C747.935 566.792 747.827 567.004 747.74 567.224 747.643 567.449 747.523 567.662 747.38 567.861L747.257 568.052 747.529 569.199 748.176 569.745C747.998 569.881 747.836 570.036 747.692 570.208 747.502 570.398 747.291 570.567 747.064 570.711L747.461 569.971 746.919 569.261 746.901 568.999 746.399 568.239 745.851 568.028 745.609 567.996 745.295 568.036 744.468 568.876 744.597 569.872 745.128 570.285 745.431 571.044 746.217 571.327 746.495 571.267 746.119 572.195 746.192 572.36C746.076 572.333 745.958 572.313 745.84 572.3L745.659 572.279 744.921 572.727 744.701 572.964 744.648 573.172C744.547 573.581 744.502 574.002 744.515 574.423L744.507 574.612 744.849 575.083 744.508 575.437C744.065 575.874 743.656 576.343 743.284 576.841 743.066 576.848 742.85 576.882 742.64 576.943L742.48 576.999 741.292 578.692 741.039 579.321 740.968 579.864C740.815 580.239 740.732 580.311 740.696 580.325 740.467 580.409 740.277 580.574 740.16 580.788L740.084 580.915 740.084 581.977 742.263 584.76 743.86 585.532 744 585.519C744.531 585.463 744.917 585.415 745.216 585.377 745.915 585.245 746.637 585.302 747.307 585.544L747.56 585.709 747.571 585.869 747.417 586.309 747.596 587.049 747.936 587.647 747.805 588.097C747.718 588.513 747.55 588.907 747.309 589.257L746.544 590.551C739.244 591.956 732.187 587.178 730.782 579.878 729.5 573.218 733.373 566.645 739.82 564.539ZM746.195 570.072 746.192 570.077 746.187 570.06ZM745.867 569.508 745.597 569.3 745.592 569.255 745.712 569.135 745.857 569.352ZM767.533 591.933C766.773 590.839 765.305 590.502 764.143 591.155L751.691 598.325C751.137 597.005 749.848 596.142 748.416 596.135L746.995 596.135C743.223 596.135 734.684 596.124 728.848 596.116L728.836 596.116C725.038 596.117 721.654 598.517 720.4 602.103L717.504 610.159 728.859 621.477 732.429 612.707C733.069 611.143 734.5 610.045 736.176 609.831L751.752 607.86C752.778 607.731 753.743 607.299 754.524 606.621L767.103 595.38C768.111 594.512 768.296 593.022 767.532 591.933ZM766.399 594.579 753.819 605.82C753.198 606.357 752.433 606.699 751.619 606.801L736.043 608.772C733.985 609.034 732.227 610.384 731.443 612.305L728.475 619.589 718.736 609.883 721.405 602.457C722.51 599.299 725.49 597.183 728.836 597.183L728.845 597.183C734.684 597.191 743.223 597.201 746.995 597.201L748.417 597.201C749.653 597.2 750.691 598.131 750.823 599.36 750.821 600.538 749.867 601.492 748.689 601.493L737.352 601.493 737.352 602.56 748.691 602.56C750.425 602.558 751.842 601.176 751.889 599.443L764.668 592.083C765.406 591.676 766.335 591.944 766.742 592.683 767.091 593.316 766.948 594.108 766.399 594.579Z" fill="#FFFFFF"/></g></svg>