<svg width="64" height="64" xmlns="http://www.w3.org/2000/svg" xmlns:xlink="http://www.w3.org/1999/xlink" xml:space="preserve" overflow="hidden"><g transform="translate(-499 -200)"><path d="M519.133 248.995 520.2 248.461 520.2 257.2 500.467 257.2 500.467 212.667C500.467 208.133 507.893 208.133 510.336 208.133 512.776 208.133 520.2 208.133 520.2 212.667L520.2 240.136C519.835 240.211 519.478 240.321 519.133 240.464L519.133 212.667C519.133 210.335 516.255 209.201 510.336 209.201 504.413 209.201 501.533 210.335 501.533 212.667L501.533 256.133 519.133 256.133ZM506.867 238.667 506.867 238C506.867 236.085 508.419 234.533 510.333 234.533 512.248 234.533 513.8 236.085 513.8 238L513.8 238.667C513.8 239.477 513.143 240.133 512.333 240.133L512.333 241.2C513.732 241.198 514.864 240.065 514.867 238.667L514.867 238C514.867 235.496 512.837 233.467 510.333 233.467 507.83 233.467 505.8 235.496 505.8 238L505.8 238.667C505.802 240.065 506.935 241.198 508.333 241.2L508.333 240.133C507.523 240.133 506.867 239.477 506.867 238.667ZM517.708 243.452 515.964 246.068 516.753 246.857C515.912 247.858 515.264 249.006 514.843 250.243 514.296 251.647 514.053 252.133 513 252.133 511.664 252.133 510.867 250.339 510.867 247.333L510.867 238.533 512.333 238.533 512.333 237.467 508.333 237.467 508.333 238.533 509.8 238.533 509.8 247.333C509.8 252.629 512.037 253.2 513 253.2 514.836 253.2 515.321 251.952 515.837 250.631 516.216 249.537 516.788 248.521 517.524 247.628L517.877 247.981 520.776 246.533 524.333 246.533 524.333 245.467 520.649 245.467 518.089 246.685 517.336 245.932 518.596 244.043C519.224 243.098 520.283 242.531 521.417 242.533L524.333 242.533 524.333 241.467 521.416 241.467C519.926 241.466 518.534 242.211 517.709 243.452ZM508.316 223.867 503.861 223.867 511.417 214.8 513.684 214.8 512.351 220.133 516.807 220.133 509.249 229.2 506.983 229.2ZM509.684 222.8 508.351 228.133 508.751 228.133 514.528 221.2 510.983 221.2 512.316 215.867 511.916 215.867 506.14 222.8ZM557.919 233.467 562.867 233.467 562.867 234C562.863 235.739 561.472 237.157 559.733 237.193L559.749 237.225C559.847 237.295 559.952 237.347 560.044 237.425 560.989 238.227 561.533 239.404 561.532 240.643L561.532 256.403C561.532 256.86 561.162 257.231 560.705 257.232L555.961 257.232C555.505 257.231 555.135 256.861 555.133 256.404L555.133 254.231C552.751 254.413 549.488 254.532 545 254.533 540.653 254.532 535.893 254.437 532.2 254.123L532.2 256.403C532.199 256.859 531.83 257.23 531.373 257.232L526.627 257.232C526.17 257.231 525.801 256.861 525.8 256.404L525.8 240.644C525.799 239.404 526.344 238.226 527.289 237.424 527.38 237.347 527.487 237.295 527.583 237.225L527.599 237.193C525.861 237.156 524.47 235.739 524.467 234L524.467 233.467 529.416 233.467 531.829 228.517C532.38 227.46 533.474 226.797 534.667 226.8L552.667 226.8C553.86 226.796 554.956 227.459 555.507 228.517ZM529.103 236.541C529.647 236.414 530.21 236.394 530.761 236.481 535.483 237.14 540.246 237.469 545.013 237.467 548.906 237.465 552.791 237.133 556.627 236.473 557.16 236.392 557.704 236.414 558.229 236.539L556.168 232.307 555.633 231.651C555.049 230.932 554.172 230.515 553.245 230.517L534.088 230.517C533.162 230.515 532.285 230.931 531.701 231.651L531.165 232.307ZM532.785 228.983 532.375 229.827C532.912 229.58 533.497 229.451 534.088 229.449L553.245 229.449C553.837 229.451 554.421 229.58 554.959 229.827L554.548 228.983C554.174 228.293 553.451 227.864 552.667 227.867L534.667 227.867C533.882 227.864 533.159 228.293 532.785 228.983ZM528.116 236.133 528.895 234.533 525.601 234.533C525.846 235.474 526.695 236.131 527.667 236.133ZM526.868 244.176C527.321 244.961 528.152 245.452 529.059 245.469L533.197 245.468 530.913 242.717 526.868 241.192ZM531.133 254.02C529.687 253.915 528.257 253.652 526.868 253.236L526.868 256.164 531.133 256.164ZM545 253.467C546.735 253.467 548.335 253.446 549.8 253.404L549.8 251.867 537.533 251.867 537.533 253.331C539.841 253.416 542.373 253.465 545 253.467ZM560.465 256.164 560.465 253.377C559.079 253.799 557.647 254.056 556.2 254.141L556.2 256.164ZM560.465 241.191 556.42 242.717 554.137 245.467 558.333 245.467C559.22 245.436 560.027 244.948 560.465 244.176ZM559.355 238.237C558.649 237.637 557.715 237.377 556.8 237.527 552.907 238.196 548.964 238.533 545.013 238.533 540.187 238.535 535.366 238.201 530.585 237.533 528.881 237.221 527.246 238.35 526.934 240.054 526.933 240.061 526.932 240.068 526.931 240.075L531.553 241.819 535.471 246.533 529 246.533C528.233 246.468 527.497 246.2 526.868 245.756L526.868 252.204C527.608 252.667 531.381 253.069 536.467 253.288L536.467 250.8 550.867 250.8 550.867 253.371C556.523 253.176 559.871 252.713 560.465 252.247L560.465 245.76C559.855 246.196 559.139 246.462 558.392 246.529L553 246.533 551.863 246.533 555.78 241.819 560.403 240.075C560.276 239.359 559.906 238.71 559.355 238.237ZM558.439 234.533 559.217 236.133 559.667 236.133C560.639 236.132 561.488 235.475 561.733 234.533ZM528.333 250.533 529.8 250.533 529.8 252 530.867 252 530.867 249.467 528.333 249.467ZM557.533 250.533 559 250.533 559 249.467 556.467 249.467 556.467 252 557.533 252ZM539 246.533 548.333 246.533 548.333 245.467 539 245.467Z" fill="#FFFFFF"/></g></svg>