<svg width="64" height="64" xmlns="http://www.w3.org/2000/svg" xmlns:xlink="http://www.w3.org/1999/xlink" xml:space="preserve" overflow="hidden"><g transform="translate(-392 -440)"><path d="M404 457.333 402.667 457.333 402.667 456 404 456ZM408.749 466.821 412.863 458.8 409.704 458.8 415.987 447.471 420.259 455.175 420.868 454.075 415.987 445.271 407.893 459.867 411.116 459.867 407.889 466.159C408.174 466.367 408.46 466.588 408.749 466.821ZM441.333 445.333 440 445.333 440 446.667 441.333 446.667ZM445.333 454.667 446.667 454.667 446.667 452 445.333 452ZM445.333 444 444 444 444 445.333 445.333 445.333ZM433.2 486.533 433.2 493.467 437.333 493.467 437.333 494.533 425.939 494.533C426.123 494.18 426.283 493.824 426.443 493.467L428.133 493.467 428.133 486.533 428.027 486.533C428.032 486.176 428.011 485.821 427.991 485.467L443.271 485.467 439.145 477.333 440.341 477.333 445.008 486.533ZM432.133 486.533 429.2 486.533 429.2 493.467 432.133 493.467ZM449.187 469.127C448.936 465.085 446.931 463.213 444.991 461.401 442.621 459.192 440.384 457.103 441.819 450.784L442.019 449.904 441.151 450.155C439.228 450.754 437.406 451.638 435.745 452.779L430.267 442.9 420.12 461.2 424.253 461.2 419.139 471.175C419.476 471.825 419.757 472.502 419.979 473.2L422.288 473.2 421.781 474.2C422.117 474.324 422.431 474.502 422.709 474.727L424.025 472.133 419.847 472.133 426 460.133 421.931 460.133 430.267 445.1 434.889 453.437C433.948 454.197 433.176 455.145 432.623 456.221 431.833 457.861 431.806 459.765 432.549 461.427 433.704 464.276 433.965 466.045 433.396 467.164 432.918 467.951 432.115 468.483 431.204 468.617L431.463 469.653C432.674 469.447 433.731 468.712 434.347 467.648 435.267 465.84 434.453 463.287 433.537 461.027 432.913 459.645 432.929 458.058 433.581 456.689 434.967 453.832 438.848 452.116 440.587 451.472 439.443 457.685 441.889 459.969 444.261 462.181 446.131 463.928 447.896 465.576 448.12 469.193 448.33 471.758 446.858 474.164 444.479 475.144 446.191 472.175 444.977 469.093 443.08 467.051 442.259 466.249 441.294 465.61 440.236 465.167L438.895 464.62 439.561 465.905C441.416 469.485 440.577 471.584 440.131 472.319 439.714 473.088 438.92 473.578 438.045 473.607L438.045 474.673C439.291 474.641 440.429 473.958 441.043 472.873 441.998 470.988 442.037 468.77 441.149 466.852 441.569 467.112 441.955 467.422 442.299 467.777 443.192 468.737 445.868 472.148 442.805 475.649L441.92 476.663 443.259 476.531C446.889 476.032 449.493 472.778 449.185 469.127ZM401.333 454.667 400 454.667 400 456 401.333 456ZM401.333 461.333 400 461.333 400 464 401.333 464ZM403.149 481.296C404.696 479.207 405.919 477.556 405.592 472.781 405.271 471.085 404.623 469.468 403.685 468.019 405.767 469.19 407.594 470.764 409.06 472.649 409.112 472.081 409.118 471.508 409.076 470.939 407.2 468.916 404.934 467.295 402.413 466.173L400.752 465.487 401.769 466.968C402.495 468.027 404.405 471.147 404.529 472.857 404.828 477.237 403.765 478.673 402.293 480.661 401.713 481.421 401.173 482.211 400.676 483.028 398.417 486.748 398.217 489.688 400.008 492.456 400.004 491.78 400.053 491.105 400.153 490.436 399.596 488.809 399.711 486.673 401.591 483.577 402.07 482.79 402.591 482.029 403.151 481.297ZM421.013 476.939C426.667 482.205 426.581 490.493 420.805 497.092 419.41 498.931 416.82 499.36 414.907 498.068 412.771 496.601 411.648 493.167 413.556 488.585 412.844 488.976 412.191 489.465 411.617 490.039 410.431 491.292 406.879 495.739 410.953 500.316L411.857 501.331 410.504 501.201C407.495 500.811 404.896 498.905 403.619 496.153 402.045 492.756 402.768 488.603 405.652 484.457 406.301 483.461 407.012 482.525 407.699 481.62 410.041 478.536 412.252 475.624 411.867 470.699 411.814 470.041 411.753 469.383 411.684 468.727L411.56 467.557 412.523 468.235C412.573 468.271 413.789 469.128 414.433 469.675 417.572 472.344 417.837 475.981 418.032 478.636 418.185 480.751 418.319 481.96 419.267 482.204 419.445 482.271 419.645 482.247 419.803 482.14 419.968 482.021 420.253 481.663 420.325 480.593 420.344 479.527 420.276 478.462 420.121 477.407L419.903 475.903ZM421.351 478.836C421.406 479.444 421.419 480.055 421.389 480.665 421.429 481.548 421.077 482.404 420.428 483.004 420.013 483.297 419.487 483.383 419 483.237 417.265 482.789 417.127 480.901 416.968 478.715 416.777 476.109 416.541 472.868 413.741 470.488 413.455 470.25 413.161 470.02 412.861 469.799 412.885 470.059 412.909 470.339 412.931 470.615 413.348 475.945 410.908 479.159 408.549 482.265 407.871 483.159 407.171 484.08 406.543 485.045L406.532 485.059C403.869 488.884 403.179 492.667 404.587 495.707 405.505 497.674 407.195 499.175 409.257 499.853 406.753 496.008 408.332 491.964 410.844 489.308 411.902 488.296 413.14 487.491 414.495 486.935L415.841 486.396 415.165 487.677C412.685 492.38 413.552 495.844 415.512 497.191 416.981 498.176 418.965 497.823 420.004 496.392 424.983 490.703 425.449 483.696 421.352 478.837Z" fill="#FFFFFF"/></g></svg>