<svg width="64" height="64" xmlns="http://www.w3.org/2000/svg" xmlns:xlink="http://www.w3.org/1999/xlink" xml:space="preserve" overflow="hidden"><g transform="translate(-712 -560)"><path d="M775.867 574.533 775.867 562.533 776 562.533 776 561.467 747.333 561.467C733.168 561.467 724.871 571.435 721.187 577.377 720.204 578.963 720.693 581.045 722.279 582.027 722.813 582.358 723.429 582.533 724.057 582.533L725.777 582.533 725.133 583.843C724.852 584.422 724.886 585.105 725.224 585.653 725.564 586.202 726.163 586.535 726.808 586.533L742.08 586.533C743.103 587.965 745.092 588.296 746.524 587.273 746.844 587.044 747.119 586.758 747.335 586.429 748.301 587.9 750.275 588.309 751.746 587.343 752.074 587.127 752.36 586.853 752.588 586.533L776 586.533 776 585.467 753.087 585.467C753.315 584.655 753.196 583.785 752.757 583.065L752.603 582.799 747.397 582.799 747.333 582.909 747.269 582.8 742.064 582.8 741.909 583.065C741.471 583.785 741.352 584.654 741.58 585.465L726.808 585.465C726.532 585.466 726.275 585.323 726.131 585.088 725.986 584.854 725.971 584.562 726.091 584.315L726.967 582.533 739.333 582.533 742.127 581.2 752.54 581.2 755.095 582.476 776 582.533 776 581.467 755.46 581.467 752.905 580.191 742 580.133 739.207 581.467 724.057 581.467C722.781 581.467 721.746 580.433 721.746 579.157 721.746 578.727 721.866 578.305 722.092 577.94 722.823 576.764 723.614 575.627 724.463 574.533L746.533 574.533 746.533 562.569C746.803 562.561 747.06 562.533 747.333 562.533L749.467 562.533 749.467 574.533 761.2 574.533 761.2 562.533 764.133 562.533 764.133 574.533ZM748.031 583.867 751.969 583.867C752.078 584.119 752.133 584.392 752.133 584.667 752.133 585.845 751.178 586.8 750 586.8 748.822 586.8 747.867 585.845 747.867 584.667 747.867 584.392 747.922 584.119 748.031 583.867ZM742.697 583.867 746.636 583.867C746.744 584.119 746.8 584.392 746.8 584.667 746.8 585.845 745.845 586.8 744.667 586.8 743.488 586.8 742.533 585.845 742.533 584.667 742.533 584.392 742.589 584.119 742.697 583.867ZM745.467 573.467 725.327 573.467C730.237 567.204 737.536 563.272 745.467 562.616ZM774.8 573.467 765.2 573.467 765.2 562.533 774.8 562.533ZM760.133 573.467 750.533 573.467 750.533 562.533 760.133 562.533Z" fill="#FFFFFF"/><path d="M766.667 598.8 737.2 598.8 737.2 596.133 717.467 596.133 717.467 598.8 714 598.8C712.97 598.802 712.136 599.637 712.133 600.667L712.133 617.047 720.204 619.837 724.343 619.864C724.988 621.884 727.149 622.998 729.169 622.353 730.352 621.975 731.279 621.049 731.657 619.867L755.009 619.867C755.656 621.887 757.817 623 759.837 622.354 761.019 621.975 761.946 621.049 762.324 619.867L771.333 619.867C772.363 619.864 773.198 619.03 773.2 618L773.2 612C773.2 608.904 772.729 598.8 766.667 598.8ZM761.467 599.867 761.467 608.133 754.533 608.133 754.533 599.867ZM750.8 599.867 750.8 608.133 743.867 608.133 743.867 599.867ZM733.2 599.867 740.133 599.867 740.133 608.133 733.2 608.133ZM718.533 597.2 736.133 597.2 736.133 598.8 718.533 598.8ZM722.533 599.867 729.467 599.867 729.467 608.133 722.533 608.133ZM728 621.467C726.454 621.467 725.2 620.213 725.2 618.667 725.2 617.12 726.454 615.867 728 615.867 729.546 615.867 730.8 617.12 730.8 618.667 730.799 620.213 729.546 621.466 728 621.467ZM758.667 621.467C757.12 621.467 755.867 620.213 755.867 618.667 755.867 617.12 757.12 615.867 758.667 615.867 760.213 615.867 761.467 617.12 761.467 618.667 761.466 620.213 760.213 621.466 758.667 621.467ZM771.333 618.8 762.52 618.8C762.521 618.755 762.533 618.712 762.533 618.667 762.533 616.531 760.802 614.8 758.667 614.8 756.531 614.8 754.8 616.531 754.8 618.667 754.8 618.712 754.812 618.755 754.813 618.8L731.853 618.8C731.855 618.755 731.867 618.712 731.867 618.667 731.867 616.531 730.135 614.8 728 614.8 725.865 614.8 724.133 616.531 724.133 618.667 724.133 618.712 724.145 618.755 724.147 618.8L720.469 618.8 713.2 616.287 713.2 600.667C713.2 600.225 713.558 599.867 714 599.867L721.467 599.867 721.467 609.2 730.533 609.2 730.533 599.867 732.133 599.867 732.133 609.2 741.2 609.2 741.2 599.867 742.8 599.867 742.8 609.2 751.867 609.2 751.867 599.867 753.467 599.867 753.467 609.2 762.533 609.2 762.533 599.867 765.467 599.867 765.467 614.533 772.133 614.533 772.133 616.133 769.333 616.133 769.333 617.2 772.133 617.2 772.133 618C772.133 618.442 771.775 618.8 771.333 618.8ZM772.133 613.467 766.533 613.467 766.533 599.867 766.667 599.867C771.869 599.867 772.133 609.973 772.133 612Z" fill="#FFFFFF"/></g></svg>