<svg width="64" height="64" xmlns="http://www.w3.org/2000/svg" xmlns:xlink="http://www.w3.org/1999/xlink" xml:space="preserve" overflow="hidden"><g transform="translate(-1032 -200)"><path d="M1053.47 240.133 1070.52 240.133 1070.52 258.667 1069.45 258.667 1069.45 241.2 1054.53 241.2 1054.53 258.667 1053.47 258.667ZM1074.52 216.405 1074.52 224.133 1081.19 224.133 1081.15 233.536 1076.34 245.2 1073.19 245.2 1073.19 258.667 1072.12 258.667 1072.12 238.533 1051.87 238.533 1051.87 258.667 1050.8 258.667 1050.8 245.2 1047.64 245.2 1042.8 233.333 1042.8 224.133 1049.47 224.133 1049.47 216.405 1044.48 220.032 1042.5 218.055 1048.25 210.151C1048.33 209.245 1048.72 208.395 1049.36 207.749 1050.21 206.897 1051.4 206.489 1052.59 206.647 1053.8 206.808 1054.86 207.527 1055.46 208.588 1056.12 209.744 1056.13 211.157 1055.49 212.323 1054.85 213.481 1053.66 214.232 1052.34 214.315L1050.53 215.629 1050.53 224.133 1061.47 224.133 1061.47 219.867 1060.18 219.867 1059.42 212.199C1059 211.55 1058.79 210.792 1058.8 210.021 1058.71 208.258 1060.07 206.756 1061.83 206.668 1063.6 206.58 1065.1 207.938 1065.19 209.702 1065.19 209.808 1065.19 209.915 1065.19 210.021 1065.2 210.787 1064.99 211.54 1064.58 212.188L1063.82 219.868 1062.53 219.868 1062.53 224.133 1073.45 224.133 1073.45 215.629 1071.65 214.315C1070.32 214.231 1069.14 213.481 1068.49 212.324 1067.86 211.157 1067.87 209.744 1068.52 208.588 1069.12 207.527 1070.19 206.808 1071.39 206.647 1072.58 206.485 1073.78 206.894 1074.62 207.749 1075.26 208.395 1075.66 209.244 1075.74 210.149L1081.49 218.055 1079.51 220.032ZM1072.11 213.253 1074.67 210.703C1074.8 209.175 1073.67 207.827 1072.14 207.693 1071.94 207.675 1071.73 207.68 1071.53 207.707 1070.65 207.827 1069.88 208.351 1069.45 209.124 1068.7 210.463 1069.17 212.158 1070.51 212.909 1071 213.182 1071.56 213.302 1072.11 213.253ZM1060.83 212.133 1063.17 212.133C1063.84 211.647 1064.2 210.844 1064.12 210.023 1064.19 208.848 1063.3 207.838 1062.12 207.766 1060.95 207.693 1059.94 208.587 1059.87 209.762 1059.86 209.849 1059.86 209.936 1059.87 210.023 1059.79 210.847 1060.15 211.652 1060.83 212.135ZM1062.85 218.8 1063.41 213.201 1060.59 213.201 1061.15 218.801ZM1049.32 210.701 1051.87 213.253C1052.98 213.347 1054.03 212.778 1054.56 211.804 1055.02 210.967 1055.01 209.953 1054.54 209.124 1054.11 208.351 1053.33 207.827 1052.45 207.707 1050.94 207.503 1049.54 208.568 1049.34 210.087 1049.31 210.291 1049.3 210.497 1049.32 210.701ZM1051.05 213.937 1048.6 211.487 1043.9 217.947 1044.59 218.636ZM1080.12 233.213 1043.87 233.213 1048.36 244.133 1050.8 244.133 1050.8 237.467 1073.19 237.467 1073.19 244.133 1075.63 244.133ZM1043.87 225.2 1043.87 232.128 1080.12 232.128 1080.12 225.2ZM1079.4 218.635 1080.09 217.945 1075.39 211.485 1072.94 213.936Z" fill="#FFFFFF"/></g></svg>