<svg width="64" height="64" xmlns="http://www.w3.org/2000/svg" xmlns:xlink="http://www.w3.org/1999/xlink" xml:space="preserve" overflow="hidden"><g transform="translate(-605 -560)"><path d="M664.276 595.951 640.263 620.089 617.627 597.333 619.131 597.333 640.264 618.577 663.523 595.199C669.127 589.54 669.127 580.423 663.523 574.764 657.953 569.152 648.889 569.118 643.277 574.687 643.251 574.713 643.226 574.738 643.2 574.764L640.264 577.716 637.328 574.764C631.758 569.152 622.694 569.119 617.082 574.688 617.057 574.713 617.032 574.739 617.007 574.764 612.858 578.956 611.657 585.24 613.967 590.667L612.813 590.667C610.564 584.924 611.911 578.395 616.251 574.012 622.235 567.983 631.974 567.948 638.003 573.932 638.03 573.959 638.056 573.985 638.083 574.012L640.264 576.204 642.445 574.012C648.43 567.983 658.169 567.948 664.198 573.932 664.224 573.959 664.251 573.985 664.277 574.012 670.295 580.087 670.295 589.876 664.277 595.951ZM650.703 593.467 645.663 580.168 636.329 605.313 628.348 584.195 624.639 593.467 605 593.467 605 594.533 625.36 594.533 628.32 587.139 636.337 608.355 645.671 583.207 649.964 594.533 659.667 594.533 659.667 593.467Z" fill="#FFFFFF"/></g></svg>