<svg width="64" height="64" xmlns="http://www.w3.org/2000/svg" xmlns:xlink="http://www.w3.org/1999/xlink" xml:space="preserve" overflow="hidden"><g transform="translate(-1032 -560)"><path d="M1094.52 586.277 1063.33 570.065 1032.15 586.277 1038.8 589.541 1038.8 614.667 1039.87 614.667 1039.87 590.064 1044.13 592.157 1044.13 604.995C1044.13 607.933 1054.46 612.825 1063.13 616.413L1063.33 616.497 1063.54 616.413C1072.2 612.827 1082.53 607.933 1082.53 604.995L1082.53 592.16ZM1063.33 571.268 1092.15 586.249 1063.33 600.392 1041.15 589.504 1063.4 586.528 1063.26 585.471 1039.42 588.657 1034.52 586.251ZM1081.47 604.995C1081.47 606.684 1074.19 610.835 1063.33 615.341 1052.48 610.835 1045.2 606.684 1045.2 604.995L1045.2 592.681 1063.33 601.581 1081.47 592.681Z" fill="#FFFFFF"/></g></svg>